<?xml version="1.0" encoding="UTF-8" standalone="no"?>
<!DOCTYPE svg PUBLIC "-//W3C//DTD SVG 1.1//EN"
 "http://www.w3.org/Graphics/SVG/1.1/DTD/svg11.dtd">
<!-- Generated by graphviz version 2.38.0 (20140413.2041)
 -->
<!-- Title: %3 Pages: 1 -->
<svg width="198pt" height="556pt"
 viewBox="0.00 0.00 197.50 556.00" xmlns="http://www.w3.org/2000/svg" xmlns:xlink="http://www.w3.org/1999/xlink">
<g id="graph0" class="graph" transform="scale(1 1) rotate(0) translate(4 552)">
<title>%3</title>
<polygon fill="white" stroke="none" points="-4,4 -4,-552 193.5,-552 193.5,4 -4,4"/>
<!-- n1_3_f0cf7 -->
<g id="node1" class="node"><title>n1_3_f0cf7</title>
<polygon fill="none" stroke="black" points="1.5,-292.5 1.5,-328.5 57.5,-328.5 57.5,-292.5 1.5,-292.5"/>
<text text-anchor="middle" x="29.5" y="-306.8" font-family="Times,serif" font-size="14.00">3:f0cf7</text>
</g>
<!-- n1_4_acb24 -->
<g id="node5" class="node"><title>n1_4_acb24</title>
<polygon fill="none" stroke="black" points="0,-146.5 0,-182.5 59,-182.5 59,-146.5 0,-146.5"/>
<text text-anchor="middle" x="29.5" y="-160.8" font-family="Times,serif" font-size="14.00">4:acb24</text>
</g>
<!-- n1_3_f0cf7&#45;&gt;n1_4_acb24 -->
<g id="edge10" class="edge"><title>n1_3_f0cf7&#45;&gt;n1_4_acb24</title>
<path fill="none" stroke="black" d="M29.5,-292.416C29.5,-267.841 29.5,-222.253 29.5,-192.927"/>
<polygon fill="black" stroke="black" points="33.0001,-192.562 29.5,-182.562 26.0001,-192.562 33.0001,-192.562"/>
</g>
<!-- slot_4 -->
<g id="node2" class="node"><title>slot_4</title>
<polygon fill="none" stroke="black" points="135.5,-292.5 135.5,-328.5 189.5,-328.5 189.5,-292.5 135.5,-292.5"/>
<text text-anchor="middle" x="162.5" y="-306.8" font-family="Times,serif" font-size="14.00">slot_4</text>
</g>
<!-- slot_5 -->
<g id="node4" class="node"><title>slot_5</title>
<polygon fill="none" stroke="black" points="135.5,-219.5 135.5,-255.5 189.5,-255.5 189.5,-219.5 135.5,-219.5"/>
<text text-anchor="middle" x="162.5" y="-233.8" font-family="Times,serif" font-size="14.00">slot_5</text>
</g>
<!-- slot_4&#45;&gt;slot_5 -->
<g id="edge4" class="edge"><title>slot_4&#45;&gt;slot_5</title>
<path fill="none" stroke="black" d="M162.5,-292.313C162.5,-284.289 162.5,-274.547 162.5,-265.569"/>
<polygon fill="black" stroke="black" points="166,-265.529 162.5,-255.529 159,-265.529 166,-265.529"/>
</g>
<!-- n1_3_617f9 -->
<g id="node3" class="node"><title>n1_3_617f9</title>
<polygon fill="none" stroke="black" points="58,-219.5 58,-255.5 117,-255.5 117,-219.5 58,-219.5"/>
<text text-anchor="middle" x="87.5" y="-233.8" font-family="Times,serif" font-size="14.00">3:617f9</text>
</g>
<!-- slot_6 -->
<g id="node6" class="node"><title>slot_6</title>
<polygon fill="none" stroke="black" points="135.5,-146.5 135.5,-182.5 189.5,-182.5 189.5,-146.5 135.5,-146.5"/>
<text text-anchor="middle" x="162.5" y="-160.8" font-family="Times,serif" font-size="14.00">slot_6</text>
</g>
<!-- slot_5&#45;&gt;slot_6 -->
<g id="edge5" class="edge"><title>slot_5&#45;&gt;slot_6</title>
<path fill="none" stroke="black" d="M162.5,-219.313C162.5,-211.289 162.5,-201.547 162.5,-192.569"/>
<polygon fill="black" stroke="black" points="166,-192.529 162.5,-182.529 159,-192.529 166,-192.529"/>
</g>
<!-- n1_5_dfe40 -->
<g id="node7" class="node"><title>n1_5_dfe40</title>
<polygon fill="none" stroke="black" points="0.5,-73.5 0.5,-109.5 58.5,-109.5 58.5,-73.5 0.5,-73.5"/>
<text text-anchor="middle" x="29.5" y="-87.8" font-family="Times,serif" font-size="14.00">5:dfe40</text>
</g>
<!-- n1_4_acb24&#45;&gt;n1_5_dfe40 -->
<g id="edge11" class="edge"><title>n1_4_acb24&#45;&gt;n1_5_dfe40</title>
<path fill="none" stroke="black" d="M29.5,-146.313C29.5,-138.289 29.5,-128.547 29.5,-119.569"/>
<polygon fill="black" stroke="black" points="33.0001,-119.529 29.5,-109.529 26.0001,-119.529 33.0001,-119.529"/>
</g>
<!-- slot_7 -->
<g id="node8" class="node"><title>slot_7</title>
<polygon fill="none" stroke="black" points="135.5,-73.5 135.5,-109.5 189.5,-109.5 189.5,-73.5 135.5,-73.5"/>
<text text-anchor="middle" x="162.5" y="-87.8" font-family="Times,serif" font-size="14.00">slot_7</text>
</g>
<!-- slot_6&#45;&gt;slot_7 -->
<g id="edge6" class="edge"><title>slot_6&#45;&gt;slot_7</title>
<path fill="none" stroke="black" d="M162.5,-146.313C162.5,-138.289 162.5,-128.547 162.5,-119.569"/>
<polygon fill="black" stroke="black" points="166,-119.529 162.5,-109.529 159,-119.529 166,-119.529"/>
</g>
<!-- n1_6_4aa1a -->
<g id="node9" class="node"><title>n1_6_4aa1a</title>
<polygon fill="none" stroke="black" points="0,-0.5 0,-36.5 59,-36.5 59,-0.5 0,-0.5"/>
<text text-anchor="middle" x="29.5" y="-14.8" font-family="Times,serif" font-size="14.00">6:4aa1a</text>
</g>
<!-- n1_5_dfe40&#45;&gt;n1_6_4aa1a -->
<g id="edge12" class="edge"><title>n1_5_dfe40&#45;&gt;n1_6_4aa1a</title>
<path fill="none" stroke="black" d="M29.5,-73.3129C29.5,-65.2895 29.5,-55.5475 29.5,-46.5691"/>
<polygon fill="black" stroke="black" points="33.0001,-46.5288 29.5,-36.5288 26.0001,-46.5289 33.0001,-46.5288"/>
</g>
<!-- slot_8 -->
<g id="node10" class="node"><title>slot_8</title>
<polygon fill="none" stroke="black" points="135.5,-0.5 135.5,-36.5 189.5,-36.5 189.5,-0.5 135.5,-0.5"/>
<text text-anchor="middle" x="162.5" y="-14.8" font-family="Times,serif" font-size="14.00">slot_8</text>
</g>
<!-- slot_7&#45;&gt;slot_8 -->
<g id="edge7" class="edge"><title>slot_7&#45;&gt;slot_8</title>
<path fill="none" stroke="black" d="M162.5,-73.3129C162.5,-65.2895 162.5,-55.5475 162.5,-46.5691"/>
<polygon fill="black" stroke="black" points="166,-46.5288 162.5,-36.5288 159,-46.5289 166,-46.5288"/>
</g>
<!-- n1_1_87f85 -->
<g id="node11" class="node"><title>n1_1_87f85</title>
<polygon fill="none" stroke="black" points="29,-511.5 29,-547.5 88,-547.5 88,-511.5 29,-511.5"/>
<text text-anchor="middle" x="58.5" y="-525.8" font-family="Times,serif" font-size="14.00">1:87f85</text>
</g>
<!-- n1_2_cbaa7 -->
<g id="node13" class="node"><title>n1_2_cbaa7</title>
<polygon fill="none" stroke="black" points="0,-438.5 0,-474.5 59,-474.5 59,-438.5 0,-438.5"/>
<text text-anchor="middle" x="29.5" y="-452.8" font-family="Times,serif" font-size="14.00">2:cbaa7</text>
</g>
<!-- n1_1_87f85&#45;&gt;n1_2_cbaa7 -->
<g id="edge8" class="edge"><title>n1_1_87f85&#45;&gt;n1_2_cbaa7</title>
<path fill="none" stroke="black" d="M51.4799,-511.313C48.1315,-503.115 44.0503,-493.123 40.3177,-483.985"/>
<polygon fill="black" stroke="black" points="43.4769,-482.463 36.4554,-474.529 36.9966,-485.11 43.4769,-482.463"/>
</g>
<!-- n1_2_1bef1 -->
<g id="node15" class="node"><title>n1_2_1bef1</title>
<polygon fill="none" stroke="black" points="58.5,-365.5 58.5,-401.5 116.5,-401.5 116.5,-365.5 58.5,-365.5"/>
<text text-anchor="middle" x="87.5" y="-379.8" font-family="Times,serif" font-size="14.00">2:1bef1</text>
</g>
<!-- n1_1_87f85&#45;&gt;n1_2_1bef1 -->
<g id="edge13" class="edge"><title>n1_1_87f85&#45;&gt;n1_2_1bef1</title>
<path fill="none" stroke="black" d="M61.9406,-511.416C66.9114,-486.733 76.1516,-440.851 82.0543,-411.541"/>
<polygon fill="black" stroke="black" points="85.5207,-412.056 84.0639,-401.562 78.6585,-410.674 85.5207,-412.056"/>
</g>
<!-- slot_1 -->
<g id="node12" class="node"><title>slot_1</title>
<polygon fill="none" stroke="black" points="135.5,-511.5 135.5,-547.5 189.5,-547.5 189.5,-511.5 135.5,-511.5"/>
<text text-anchor="middle" x="162.5" y="-525.8" font-family="Times,serif" font-size="14.00">slot_1</text>
</g>
<!-- slot_2 -->
<g id="node14" class="node"><title>slot_2</title>
<polygon fill="none" stroke="black" points="135.5,-438.5 135.5,-474.5 189.5,-474.5 189.5,-438.5 135.5,-438.5"/>
<text text-anchor="middle" x="162.5" y="-452.8" font-family="Times,serif" font-size="14.00">slot_2</text>
</g>
<!-- slot_1&#45;&gt;slot_2 -->
<g id="edge1" class="edge"><title>slot_1&#45;&gt;slot_2</title>
<path fill="none" stroke="black" d="M162.5,-511.313C162.5,-503.289 162.5,-493.547 162.5,-484.569"/>
<polygon fill="black" stroke="black" points="166,-484.529 162.5,-474.529 159,-484.529 166,-484.529"/>
</g>
<!-- n1_2_cbaa7&#45;&gt;n1_3_f0cf7 -->
<g id="edge9" class="edge"><title>n1_2_cbaa7&#45;&gt;n1_3_f0cf7</title>
<path fill="none" stroke="black" d="M29.5,-438.416C29.5,-413.841 29.5,-368.253 29.5,-338.927"/>
<polygon fill="black" stroke="black" points="33.0001,-338.562 29.5,-328.562 26.0001,-338.562 33.0001,-338.562"/>
</g>
<!-- slot_3 -->
<g id="node16" class="node"><title>slot_3</title>
<polygon fill="none" stroke="black" points="135.5,-365.5 135.5,-401.5 189.5,-401.5 189.5,-365.5 135.5,-365.5"/>
<text text-anchor="middle" x="162.5" y="-379.8" font-family="Times,serif" font-size="14.00">slot_3</text>
</g>
<!-- slot_2&#45;&gt;slot_3 -->
<g id="edge2" class="edge"><title>slot_2&#45;&gt;slot_3</title>
<path fill="none" stroke="black" d="M162.5,-438.313C162.5,-430.289 162.5,-420.547 162.5,-411.569"/>
<polygon fill="black" stroke="black" points="166,-411.529 162.5,-401.529 159,-411.529 166,-411.529"/>
</g>
<!-- n1_2_1bef1&#45;&gt;n1_3_617f9 -->
<g id="edge14" class="edge"><title>n1_2_1bef1&#45;&gt;n1_3_617f9</title>
<path fill="none" stroke="black" d="M87.5,-365.416C87.5,-340.841 87.5,-295.253 87.5,-265.927"/>
<polygon fill="black" stroke="black" points="91.0001,-265.562 87.5,-255.562 84.0001,-265.562 91.0001,-265.562"/>
</g>
<!-- slot_3&#45;&gt;slot_4 -->
<g id="edge3" class="edge"><title>slot_3&#45;&gt;slot_4</title>
<path fill="none" stroke="black" d="M162.5,-365.313C162.5,-357.289 162.5,-347.547 162.5,-338.569"/>
<polygon fill="black" stroke="black" points="166,-338.529 162.5,-328.529 159,-338.529 166,-338.529"/>
</g>
</g>
</svg>
